#!OML:ASF X:\für Bonn\!DataBase\2005_08_11_Bastian_Final\c3d\Bastian.ASF
:FULLY-SPECIFIED
:DEGREES
281
root -2.77111 2.83882 21.6681 -975.507 0.400471 -171.434
lowerback 63.5452 4.50324 15.3747
upperback 25.6265 -6.32806 6.05118
thorax 9.19807 -11.7085 0.741558
lowerneck -8.68431 7.94834 -5.36588
upperneck -4.44937 11.6285 4.4224
head -0.5467 6.11258 2.49998
rclavicle 5.42682e-014 -3.33958e-014
rhumerus -45.4749 35.1616 -103.087
rradius 31.4649
rwrist -20.0178
rhand -30.2411 -11.1968
rfingers 7.12502
rthumb -3.55029 -41.147
lclavicle 5.42682e-014 -3.33958e-014
lhumerus -27.581 19.3225 72.2112
lradius 18.9482
lwrist 38.8281
lhand -22.9306 -13.684
lfingers 7.12502
lthumb 3.5101 16.2668
rfemur -65.8836 -12.9669 27.3864
rtibia 114.241
rfoot 2.57328 0.244633
rtoes -4.52411
lfemur -43.3118 9.23476 -15.4457
ltibia 71.2652
lfoot 6.51832 5.66166
ltoes -1.98035
282
root -2.75946 2.82166 21.6508 -975.65 0.326366 -171.531
lowerback 63.3776 4.5696 15.207
upperback 25.6249 -6.26492 6.02067
thorax 9.16685 -11.6542 0.758423
lowerneck -8.61907 7.98409 -5.46635
upperneck -4.35028 11.6765 4.59987
head -0.546139 6.1347 2.57424
rclavicle -1.2921e-014 1.98785e-014
rhumerus -45.7042 34.653 -102.982
rradius 31.6518
rwrist -19.5849
rhand -30.0305 -11.3207
rfingers 7.12502
rthumb -3.34688 -41.2742
lclavicle -1.2921e-014 1.98785e-014
lhumerus -27.8794 18.593 72.3499
lradius 19.423
lwrist 39.408
lhand -23.175 -13.53
lfingers 7.12502
lthumb 3.27408 16.4246
rfemur -65.2584 -12.3475 27.3601
rtibia 112.162
rfoot 2.83754 0.0469702
rtoes -5.58873
lfemur -43.2636 9.26321 -15.4966
ltibia 71.351
lfoot 6.74674 5.7077
ltoes -1.60188
283
root -2.74775 2.80539 21.6388 -975.81 0.237364 -171.637
lowerback 63.2726 4.62338 15.0573
upperback 25.6055 -6.19809 5.97596
thorax 9.11493 -11.5961 0.758751
lowerneck -8.60448 7.99104 -5.599
upperneck -4.23536 11.6964 4.85879
head -0.537684 6.14588 2.68412
rclavicle 3.00165e-014 3.49861e-014
rhumerus -45.9373 34.1464 -102.909
rradius 31.8246
rwrist -19.1452
rhand -29.7853 -11.4556
rfingers 7.12502
rthumb -3.11012 -41.4127
lclavicle 3.00165e-014 3.49861e-014
lhumerus -28.1457 17.9095 72.4457
lradius 19.8439
lwrist 39.9073
lhand -23.3933 -13.3875
lfingers 7.12502
lthumb 3.06332 16.5702
rfemur -64.5723 -11.7508 27.297
rtibia 110.073
rfoot 3.16285 0.0573442
rtoes -6.991
lfemur -43.1599 9.28306 -15.5633
ltibia 71.3951
lfoot 7.00658 5.73401
ltoes -1.23289
284
root -2.73629 2.78877 21.6255 -975.956 0.14814 -171.737
lowerback 63.1733 4.67194 14.8954
upperback 25.5685 -6.13118 5.93203
thorax 9.04031 -11.5358 0.770435
lowerneck -8.62712 8.01233 -5.70576
upperneck -4.06745 11.7285 5.08095
head -0.502828 6.16159 2.78176
rclavicle -2.94201e-014 2.22639e-014
rhumerus -46.1997 33.6572 -102.836
rradius 31.9832
rwrist -18.709
rhand -29.5465 -11.501
rfingers 7.12502
rthumb -2.87948 -41.4613
lclavicle -2.94201e-014 2.22639e-014
lhumerus -28.4562 17.2573 72.5319
lradius 20.2787
lwrist 40.3792
lhand -23.5955 -13.2415
lfingers 7.12502
lthumb 2.86803 16.7189
rfemur -63.8778 -11.1807 27.2188
rtibia 107.996
rfoot 3.60223 0.224062
rtoes -8.29358
lfemur -43.076 9.3178 -15.6433
ltibia 71.4268
lfoot 7.2693 5.77113
ltoes -0.659964
285
root -2.72459 2.77168 21.6124 -976.102 0.10829 -171.822
lowerback 63.0808 4.69952 14.7841
upperback 25.5293 -6.06377 5.87823
thorax 8.96704 -11.4692 0.749868
lowerneck -8.65381 8.02619 -5.7755
upperneck -3.9206 11.7503 5.28933
head -0.470272 6.17286 2.86844
rclavicle 5.14852e-014 1.43125e-014
rhumerus -46.5607 33.3702 -102.942
rradius 32.1787
rwrist -18.5309
rhand -29.3801 -11.6323
rfingers 7.12502
rthumb -2.71883 -41.5947
lclavicle 5.14852e-014 1.43125e-014
lhumerus -28.7861 16.5962 72.59
lradius 20.7395
lwrist 40.8801
lhand -23.7428 -13.0629
lfingers 7.12502
lthumb 2.72573 16.8994
rfemur -63.143 -10.6186 27.1938
rtibia 105.906
rfoot 4.08852 0.434396
rtoes -9.40584
lfemur -42.986 9.32089 -15.6515
ltibia 71.4457
lfoot 7.54263 5.85808
ltoes 0.497009
286
root -2.71342 2.75433 21.5983 -976.254 0.03914 -171.907
lowerback 62.9875 4.73554 14.6529
upperback 25.5005 -6.00732 5.83019
thorax 8.90679 -11.4146 0.744308
lowerneck -8.73758 8.03994 -5.84444
upperneck -3.73283 11.7736 5.51232
head -0.415849 6.18592 2.96477
rclavicle 2.78299e-015 2.38542e-015
rhumerus -46.9219 33.1424 -103.082
rradius 32.3409
rwrist -18.3793
rhand -29.253 -11.7392
rfingers 7.12502
rthumb -2.59605 -41.7031
lclavicle 2.78299e-015 2.38542e-015
lhumerus -29.0783 16.1021 72.6104
lradius 21.1234
lwrist 41.1951
lhand -23.874 -12.9167
lfingers 7.12502
lthumb 2.59903 17.0472
rfemur -62.3551 -10.0865 27.1149
rtibia 103.823
rfoot 4.5027 0.660302
rtoes -10.4871
lfemur -42.8961 9.33607 -15.703
ltibia 71.4742
lfoot 7.81195 5.91954
ltoes 1.29872
287
root -2.70218 2.73642 21.5833 -976.392 -0.00834806 -171.987
lowerback 62.901 4.7808 14.519
upperback 25.46 -5.93485 5.79063
thorax 8.8321 -11.3523 0.747784
lowerneck -8.86332 8.04778 -5.87189
upperneck -3.52242 11.7855 5.70693
head -0.341795 6.19339 3.04818
rclavicle -2.98177e-015 -5.56597e-015
rhumerus -47.308 32.9636 -103.242
rradius 32.4951
rwrist -18.3035
rhand -29.1281 -11.7705
rfingers 7.12502
rthumb -2.47546 -41.7358
lclavicle -2.98177e-015 -5.56597e-015
lhumerus -29.4016 15.4397 72.6812
lradius 21.5959
lwrist 41.742
lhand -24.0826 -12.6605
lfingers 7.12502
lthumb 2.39758 17.3058
rfemur -61.5497 -9.56059 27.0599
rtibia 101.735
rfoot 4.88847 0.753746
rtoes -11.9759
lfemur -42.8338 9.33961 -15.7227
ltibia 71.5157
lfoot 8.0765 6.01744
ltoes 2.4221
288
root -2.69106 2.71931 21.5677 -976.501 -0.0709346 -172.083
lowerback 62.7879 4.85139 14.3384
upperback 25.4178 -5.85031 5.75557
thorax 8.75066 -11.2847 0.772395
lowerneck -8.97016 8.04372 -5.93074
upperneck -3.32672 11.7854 5.93757
head -0.278977 6.1962 3.1478
rclavicle 1.27222e-014 -7.15625e-015
rhumerus -47.7703 32.894 -103.5
rradius 32.6731
rwrist -18.3445
rhand -29.0849 -11.8795
rfingers 7.12502
rthumb -2.4337 -41.8454
lclavicle 1.27222e-014 -7.15625e-015
lhumerus -29.7767 14.8806 72.7179
lradius 22.0666
lwrist 42.1928
lhand -24.2176 -12.519
lfingers 7.12502
lthumb 2.26718 17.4487
rfemur -60.7389 -9.02694 26.9795
rtibia 99.6497
rfoot 5.20419 0.710218
rtoes -13.3514
lfemur -42.7991 9.35742 -15.7729
ltibia 71.5769
lfoot 8.30234 6.13048
ltoes 3.52918
289
root -2.68006 2.70144 21.5532 -976.557 -0.0963298 -172.166
lowerback 62.6184 4.93858 14.1752
upperback 25.4019 -5.75126 5.7321
thorax 8.70361 -11.2087 0.78838
lowerneck -9.21768 8.03451 -5.88914
upperneck -3.05196 11.7715 6.1102
head -0.155628 6.19296 3.22225
rclavicle -3.61788e-014 -1.74931e-014
rhumerus -48.1489 32.8148 -103.709
rradius 32.8249
rwrist -18.3754
rhand -28.9975 -11.8807
rfingers 7.12502
rthumb -2.34927 -41.8475
lclavicle -3.61788e-014 -1.74931e-014
lhumerus -30.0698 14.3639 72.7452
lradius 22.4985
lwrist 42.6126
lhand -24.3089 -12.3336
lfingers 7.12502
lthumb 2.17898 17.6351
rfemur -59.9654 -8.48415 26.9486
rtibia 97.5493
rfoot 5.50154 0.553334
rtoes -14.3996
lfemur -42.8505 9.38051 -15.7896
ltibia 71.659
lfoot 8.55285 6.21854
ltoes 4.23148
290
root -2.66982 2.68383 21.5393 -976.631 -0.141097 -172.246
lowerback 62.4975 5.00615 13.9942
upperback 25.3488 -5.66335 5.70305
thorax 8.60981 -11.1369 0.821204
lowerneck -9.37862 8.02655 -5.91473
upperneck -2.82085 11.7622 6.31553
head -0.0673504 6.19188 3.31311
rclavicle 1.21259e-014 -2.46493e-014
rhumerus -48.6513 32.784 -103.985
rradius 33.0343
rwrist -18.4971
rhand -28.9931 -11.9304
rfingers 7.12502
rthumb -2.34508 -41.8973
lclavicle 1.21259e-014 -2.46493e-014
lhumerus -30.4802 13.8786 72.7487
lradius 22.9939
lwrist 43.0718
lhand -24.3794 -12.1588
lfingers 7.12502
lthumb 2.11093 17.8105
rfemur -59.1568 -7.97301 26.8856
rtibia 95.4518
rfoot 5.78976 0.290808
rtoes -15.3531
lfemur -42.8832 9.38509 -15.8261
ltibia 71.7576
lfoot 8.7658 6.31882
ltoes 5.28261
291
root -2.65942 2.66509 21.5251 -976.71 -0.213332 -172.309
lowerback 62.3659 5.07531 13.8169
upperback 25.317 -5.58606 5.6821
thorax 8.54489 -11.0749 0.858217
lowerneck -9.6367 8.00823 -5.89245
upperneck -2.53155 11.7352 6.4932
head 0.062631 6.18299 3.39488
rclavicle 5.1684e-015 -3.49861e-014
rhumerus -49.0755 32.6824 -104.176
rradius 33.2432
rwrist -18.518
rhand -28.9214 -11.8844
rfingers 7.12502
rthumb -2.27579 -41.852
lclavicle 5.1684e-015 -3.49861e-014
lhumerus -30.8593 13.421 72.7562
lradius 23.4806
lwrist 43.4085
lhand -24.4414 -12.0256
lfingers 7.12502
lthumb 2.05107 17.9443
rfemur -58.3282 -7.50414 26.7857
rtibia 93.3671
rfoot 6.03404 0.0289113
rtoes -16.4635
lfemur -42.925 9.3627 -15.8866
ltibia 71.8788
lfoot 8.91942 6.46407
ltoes 6.3938
